<svg width="25" height="25" viewBox="0 0 25 25" fill="none" xmlns="http://www.w3.org/2000/svg">
<g id="vuesax/bold/trash">
<g id="vuesax/bold/trash_2">
<g id="trash">
<path id="Vector" d="M21.8372 5.5309C20.1798 5.36619 18.5225 5.24266 16.8548 5.15001V5.13972L16.6283 3.80149C16.4739 2.85443 16.2475 1.43384 13.8386 1.43384H11.1416C8.74305 1.43384 8.51658 2.79266 8.35188 3.79119L8.1357 5.10884C7.17835 5.1706 6.22099 5.23237 5.26364 5.32501L3.16364 5.5309C2.73129 5.57207 2.42247 5.95296 2.46364 6.37501C2.50482 6.79707 2.87541 7.1059 3.30776 7.06472L5.40776 6.85884C10.8019 6.32354 16.2372 6.52943 21.6931 7.07501C21.7239 7.07501 21.7445 7.07501 21.7754 7.07501C22.1666 7.07501 22.5063 6.77649 22.5475 6.37501C22.5783 5.95296 22.2695 5.57207 21.8372 5.5309Z" fill="white"/>
<path id="Vector_2" d="M19.9434 8.52647C19.6964 8.26912 19.3567 8.125 19.0067 8.125H5.99489C5.64489 8.125 5.29489 8.26912 5.05813 8.52647C4.82136 8.78382 4.68754 9.13382 4.70813 9.49412L5.34636 20.0559C5.4596 21.6206 5.60372 23.5765 9.19636 23.5765H15.8052C19.3978 23.5765 19.542 21.6309 19.6552 20.0559L20.2934 9.50441C20.314 9.13382 20.1802 8.78382 19.9434 8.52647ZM14.2096 18.4191H10.7817C10.3596 18.4191 10.0096 18.0691 10.0096 17.6471C10.0096 17.225 10.3596 16.875 10.7817 16.875H14.2096C14.6317 16.875 14.9817 17.225 14.9817 17.6471C14.9817 18.0691 14.6317 18.4191 14.2096 18.4191ZM15.0743 14.3015H9.92725C9.50519 14.3015 9.15519 13.9515 9.15519 13.5294C9.15519 13.1074 9.50519 12.7574 9.92725 12.7574H15.0743C15.4964 12.7574 15.8464 13.1074 15.8464 13.5294C15.8464 13.9515 15.4964 14.3015 15.0743 14.3015Z" fill="white"/>
</g>
</g>
</g>
</svg>
