<svg width="112" height="121" viewBox="0 0 112 121" fill="none" xmlns="http://www.w3.org/2000/svg">
<path d="M75.7986 0H15.5353C14.3122 0.00157776 13.1396 0.487642 12.2747 1.3516C11.4098 2.21557 10.9232 3.3869 10.9216 4.60873V34.7716H20.196C20.8744 34.7697 21.5419 34.9408 22.1356 35.2687C22.7292 35.5966 23.2292 36.0704 23.5883 36.6452L26.8028 41.7567L29.8765 46.6403L30.4535 47.5587L33.97 53.1461L34.0103 53.2098H80.4123V4.6087C80.4107 3.38688 79.9241 2.21556 79.0592 1.3516C78.1943 0.487646 77.0218 0.00157952 75.7986 0Z" fill="#CCCCCC"/>
<path d="M71.695 49.4558C71.5888 48.6765 71.2037 47.9619 70.6109 47.4443C70.0181 46.9267 69.2576 46.6411 68.4703 46.6403H29.8765L30.4535 47.5586L33.97 53.1461H68.4703C69.1483 53.1475 69.8094 52.9352 70.3595 52.5394C70.782 52.2387 71.1263 51.8416 71.3638 51.3809C71.6014 50.9203 71.7253 50.4096 71.7251 49.8915C71.7253 49.7457 71.7153 49.6001 71.695 49.4558Z" fill="white"/>
<path d="M108.531 25.9765L103.833 24.1431L80.4122 15.0127L52.391 4.08923C51.2505 3.64709 49.981 3.67471 48.8607 4.16604C47.7405 4.65737 46.861 5.57232 46.415 6.71034L45.4353 9.22084L43.1033 15.1837L39.7143 23.8615L37.1709 30.3707L35.265 35.2509L32.7216 41.7568L30.8123 46.6403L30.7588 46.7811L30.4534 47.5587L33.9698 53.1462L34.0102 53.2099H99.1421C99.74 53.2093 100.33 53.3427 100.87 53.6003C101.409 53.8578 101.884 54.233 102.259 54.6981L102.534 54.0009L105.896 45.4002L111.151 31.9494C111.595 30.8101 111.568 29.5415 111.077 28.4219C110.585 27.3022 109.67 26.4228 108.531 25.9765Z" fill="#0057E0"/>
<path d="M63.2394 53.1461L61.6825 52.5395H37.3356C37.3033 52.74 37.2909 52.9432 37.2987 53.1461H33.9701L34.0104 53.2098H63.4005L63.2394 53.1461ZM63.2394 53.1461H33.9701L34.0104 53.2098H63.4005L63.2394 53.1461ZM63.2394 53.1461H33.9701L34.0104 53.2098H63.4005L63.2394 53.1461ZM63.4005 53.2098L63.2394 53.1461H33.9701L34.0104 53.2098H63.4005ZM4.67743 120.33C3.61538 120.328 2.59729 119.906 1.84631 119.156C1.09532 118.405 0.6727 117.388 0.671083 116.328V38.777C0.672 37.7155 1.09428 36.6978 1.84532 35.9469C2.59636 35.1961 3.61485 34.7734 4.67743 34.7716H10.9218V34.1012H4.67743C3.43703 34.1035 2.24815 34.597 1.37137 35.4735C0.49459 36.3499 0.00143395 37.5379 0 38.777V116.328C0.00105932 117.224 0.260027 118.101 0.74605 118.855C1.23207 119.608 1.92467 120.206 2.74135 120.578H61.857C61.8034 120.497 61.7496 120.413 61.6959 120.33H4.67743ZM102.535 54.0008C102.099 53.539 101.573 53.171 100.99 52.9197C100.406 52.6684 99.7777 52.539 99.1424 52.5395H34.3829L30.7591 46.7811L30.6717 46.6403L27.5983 41.7567L24.1556 36.2866C23.7336 35.6184 23.1494 35.0676 22.4571 34.6855C21.7649 34.3034 20.9871 34.1024 20.1962 34.1012H4.67743C3.43703 34.1035 2.24815 34.597 1.37137 35.4735C0.49459 36.3499 0.00143395 37.5379 0 38.777V116.328C0.00105932 117.224 0.260027 118.101 0.74605 118.855C1.23207 119.608 1.92467 120.206 2.74135 120.578C3.34846 120.857 4.00907 121.001 4.67743 121H99.1424C99.8118 121.001 100.474 120.857 101.082 120.578C101.899 120.206 102.591 119.608 103.077 118.855C103.563 118.101 103.822 117.224 103.823 116.328V57.2152C103.824 56.018 103.362 54.8666 102.535 54.0008ZM103.152 116.328C103.15 117.389 102.727 118.406 101.975 119.157C101.224 119.907 100.205 120.329 99.1424 120.33H4.67743C3.61538 120.328 2.59729 119.906 1.84631 119.156C1.09532 118.405 0.6727 117.388 0.671083 116.328V38.777C0.672 37.7155 1.09428 36.6978 1.84532 35.9469C2.59636 35.1961 3.61485 34.7734 4.67743 34.7716H20.1962C20.8745 34.7697 21.5421 34.9408 22.1357 35.2687C22.7294 35.5966 23.2294 36.0704 23.5885 36.6452L26.803 41.7567L29.8766 46.6403L30.4537 47.5587L33.9701 53.1461L34.0104 53.2098L99.1424 53.2098C100.206 53.2107 101.225 53.633 101.977 54.3839C102.728 55.1349 103.151 56.1532 103.152 57.2152V116.328ZM63.2394 53.1461H33.9701L34.0104 53.2098H63.4005L63.2394 53.1461ZM63.2394 53.1461H33.9701L34.0104 53.2098H63.4005L63.2394 53.1461ZM63.2394 53.1461H33.9701L34.0104 53.2098H63.4005L63.2394 53.1461ZM63.2394 53.1461L61.6825 52.5395H34.3829L30.7591 46.7811L30.4537 47.5587L33.9701 53.1461L34.0104 53.2098H63.4005L63.2394 53.1461Z" fill="#3F3D56"/>
</svg>
