<svg width="35" height="35" viewBox="0 0 35 35" fill="none" xmlns="http://www.w3.org/2000/svg">
<g id="Group 1000007756">
<g id="Group 1000007753">
<rect id="Rectangle 11899" width="35" height="35" rx="17.5" fill="white"/>
<g id="Group 1000007754">
<g id="Group 1000007755">
<rect id="Rectangle 11901" x="5.89941" y="7.34973" width="23.2116" height="20.3101" fill="black"/>
<path id="Vector" d="M23.5858 2.99756H11.4287C6.14807 2.99756 3 6.14563 3 11.4263V23.5688C3 28.8639 6.14807 32.012 11.4287 32.012H23.5713C28.8519 32.012 32 28.8639 32 23.5833V11.4263C32.0145 6.14563 28.8664 2.99756 23.5858 2.99756ZM12.3862 16.025C12.8069 15.6043 13.5032 15.6043 13.9239 16.025L16.4192 18.5203V9.54032C16.4192 8.94552 16.9124 8.45228 17.5072 8.45228C18.102 8.45228 18.5953 8.94552 18.5953 9.54032V18.5203L21.0905 16.025C21.5112 15.6043 22.2076 15.6043 22.6283 16.025C23.049 16.4458 23.049 17.1421 22.6283 17.5628L18.2761 21.915C18.1746 22.0165 18.0585 22.0891 17.9279 22.1471C17.7974 22.2051 17.6523 22.2341 17.5072 22.2341C17.3622 22.2341 17.2316 22.2051 17.0865 22.1471C16.956 22.0891 16.8399 22.0165 16.7383 21.915L12.3862 17.5628C11.9655 17.1421 11.9655 16.4603 12.3862 16.025ZM26.5597 25.0776C23.6438 26.0495 20.5828 26.5428 17.5072 26.5428C14.4317 26.5428 11.3707 26.0495 8.45472 25.0776C7.88894 24.889 7.58428 24.2652 7.77288 23.6994C7.96147 23.1336 8.57078 22.8144 9.15106 23.0175C14.5478 24.8164 20.4812 24.8164 25.8779 23.0175C26.4437 22.8289 27.0675 23.1336 27.2561 23.6994C27.4302 24.2797 27.1255 24.889 26.5597 25.0776Z" fill="white"/>
</g>
</g>
</g>
</g>
</svg>
