<svg width="24" height="24" viewBox="0 0 24 24" fill="none" xmlns="http://www.w3.org/2000/svg">
<g id="Filled Special/icon-jpg-file">
<g id="Group">
<path id="Path" fill-rule="evenodd" clip-rule="evenodd" d="M4.07964 22H19.0796C20.6138 22 21.8574 20.7563 21.8574 19.2222V7.96852C21.8574 7.08447 21.5062 6.23662 20.8811 5.6115L18.2459 2.97631C17.6208 2.35119 16.773 2 15.8889 2H4.6352C3.10108 2 1.85742 3.24365 1.85742 4.77778V19.7778C1.85742 21.0051 2.85234 22 4.07964 22Z" fill="#78ADFF"/>
<g id="JPG">
<path d="M5.96907 18.0799C5.6704 18.0799 5.38774 18.0426 5.12107 17.9679C4.8544 17.8933 4.61707 17.7813 4.40907 17.6319C4.20107 17.4773 4.03574 17.2879 3.91307 17.0639C3.79574 16.8399 3.73174 16.5786 3.72107 16.2799C3.72107 16.2319 3.73707 16.1919 3.76907 16.1599C3.80107 16.1226 3.84374 16.1039 3.89707 16.1039H4.80907C4.8784 16.1039 4.93174 16.1226 4.96907 16.1599C5.01174 16.1973 5.04374 16.2506 5.06507 16.3199C5.09174 16.4906 5.14774 16.6293 5.23307 16.7359C5.3184 16.8426 5.42507 16.9226 5.55307 16.9759C5.6864 17.0239 5.83574 17.0479 6.00107 17.0479C6.30507 17.0479 6.53707 16.9493 6.69707 16.7519C6.8624 16.5546 6.94507 16.2746 6.94507 15.9119V13.4639H4.28107C4.22774 13.4639 4.1824 13.4453 4.14507 13.4079C4.10774 13.3706 4.08907 13.3253 4.08907 13.2719V12.5999C4.08907 12.5413 4.10774 12.4933 4.14507 12.4559C4.1824 12.4186 4.22774 12.3999 4.28107 12.3999H8.04907C8.10774 12.3999 8.15574 12.4186 8.19307 12.4559C8.2304 12.4933 8.24907 12.5413 8.24907 12.5999V15.9439C8.24907 16.4026 8.15307 16.7919 7.96107 17.1119C7.76907 17.4266 7.5024 17.6666 7.16107 17.8319C6.81974 17.9973 6.4224 18.0799 5.96907 18.0799Z" fill="white"/>
<path d="M9.78613 17.9999C9.72746 17.9999 9.67946 17.9813 9.64213 17.9439C9.6048 17.9066 9.58613 17.8586 9.58613 17.7999V12.5999C9.58613 12.5413 9.6048 12.4933 9.64213 12.4559C9.67946 12.4186 9.72746 12.3999 9.78613 12.3999H11.9701C12.4021 12.3999 12.7755 12.4666 13.0901 12.5999C13.4101 12.7333 13.6581 12.9359 13.8341 13.2079C14.0155 13.4746 14.1061 13.8079 14.1061 14.2079C14.1061 14.6133 14.0155 14.9493 13.8341 15.2159C13.6581 15.4773 13.4101 15.6719 13.0901 15.7999C12.7755 15.9279 12.4021 15.9919 11.9701 15.9919H10.8981V17.7999C10.8981 17.8586 10.8795 17.9066 10.8421 17.9439C10.8048 17.9813 10.7568 17.9999 10.6981 17.9999H9.78613ZM10.8741 14.9999H11.9301C12.2021 14.9999 12.4128 14.9333 12.5621 14.7999C12.7168 14.6666 12.7941 14.4666 12.7941 14.1999C12.7941 13.9653 12.7248 13.7733 12.5861 13.6239C12.4528 13.4746 12.2341 13.3999 11.9301 13.3999H10.8741V14.9999Z" fill="white"/>
<path d="M17.3701 18.0799C16.8687 18.0799 16.4394 17.9973 16.0821 17.8319C15.7301 17.6613 15.4554 17.4159 15.2581 17.0959C15.0661 16.7706 14.9621 16.3786 14.9461 15.9199C14.9407 15.6906 14.9381 15.4453 14.9381 15.1839C14.9381 14.9226 14.9407 14.6746 14.9461 14.4399C14.9621 13.9919 15.0661 13.6106 15.2581 13.2959C15.4554 12.9813 15.7327 12.7413 16.0901 12.5759C16.4527 12.4053 16.8794 12.3199 17.3701 12.3199C17.7647 12.3199 18.1114 12.3706 18.4101 12.4719C18.7087 12.5733 18.9594 12.7066 19.1621 12.8719C19.3647 13.0319 19.5194 13.2079 19.6261 13.3999C19.7327 13.5919 19.7887 13.7759 19.7941 13.9519C19.7941 13.9999 19.7781 14.0426 19.7461 14.0799C19.7141 14.1119 19.6714 14.1279 19.6181 14.1279H18.6261C18.5727 14.1279 18.5301 14.1173 18.4981 14.0959C18.4714 14.0746 18.4474 14.0426 18.4261 13.9999C18.3887 13.9039 18.3274 13.8079 18.2421 13.7119C18.1621 13.6106 18.0527 13.5253 17.9141 13.4559C17.7754 13.3866 17.5941 13.3519 17.3701 13.3519C17.0341 13.3519 16.7674 13.4399 16.5701 13.6159C16.3781 13.7919 16.2741 14.0799 16.2581 14.4799C16.2421 14.9386 16.2421 15.4053 16.2581 15.8799C16.2741 16.2959 16.3807 16.5946 16.5781 16.7759C16.7807 16.9573 17.0501 17.0479 17.3861 17.0479C17.6047 17.0479 17.7994 17.0106 17.9701 16.9359C18.1461 16.8559 18.2847 16.7333 18.3861 16.5679C18.4874 16.4026 18.5381 16.1919 18.5381 15.9359V15.7359H17.6661C17.6127 15.7359 17.5674 15.7173 17.5301 15.6799C17.4927 15.6373 17.4741 15.5893 17.4741 15.5359V15.0239C17.4741 14.9653 17.4927 14.9173 17.5301 14.8799C17.5674 14.8426 17.6127 14.8239 17.6661 14.8239H19.6261C19.6847 14.8239 19.7327 14.8426 19.7701 14.8799C19.8074 14.9173 19.8261 14.9653 19.8261 15.0239V15.8959C19.8261 16.3546 19.7247 16.7466 19.5221 17.0719C19.3247 17.3973 19.0394 17.6479 18.6661 17.8239C18.2981 17.9946 17.8661 18.0799 17.3701 18.0799Z" fill="white"/>
</g>
<path id="Intersect" d="M21.8318 7.55546H17.9685C17.0481 7.55546 16.3019 6.80926 16.3019 5.88879V2.02563C17.0337 2.11699 17.719 2.4493 18.2459 2.97628L20.8811 5.61147C21.4081 6.13843 21.7404 6.82367 21.8318 7.55546Z" fill="#A1C6FF"/>
</g>
</g>
</svg>
