<svg width="24" height="24" viewBox="0 0 24 24" fill="none" xmlns="http://www.w3.org/2000/svg">
<g id="Group 2">
<path id="Vector" opacity="0.5" d="M23.3395 7.20584C23.7302 7.78431 23.2557 8.48445 22.5576 8.48445H1C0.447716 8.48445 0 8.03674 0 7.48445V5.17259C0 2.31713 2.41586 0 5.39298 0H8.22369C10.2125 0 10.8348 0.620243 11.6279 1.63838L13.336 3.81508C13.7143 4.29489 13.7631 4.3534 14.4708 4.3534H17.8749C20.164 4.3534 22.1794 5.48811 23.3395 7.20584Z" fill="#0057E0"/>
<path id="Vector_2" d="M22.9794 10.802C23.5304 10.802 23.9775 11.2476 23.9795 11.7985L24 17.7238C24 21.1845 21.12 24 17.58 24H6.42C2.88 24 0 21.1845 0 17.7238V11.8023C0 11.25 0.447707 10.8023 0.999987 10.8023L22.9794 10.802Z" fill="#0057E0"/>
</g>
</svg>
