<svg width="22" height="22" viewBox="0 0 22 22" fill="none" xmlns="http://www.w3.org/2000/svg">
<path d="M15.4 1.83337H13.0167C10.0833 1.83337 8.25 3.66671 8.25 6.60004V10.3125H12.32L10.4225 8.41504C10.285 8.27754 10.2208 8.10337 10.2208 7.92921C10.2208 7.75504 10.285 7.58087 10.4225 7.44337C10.6883 7.17754 11.1283 7.17754 11.3942 7.44337L14.465 10.5142C14.7308 10.78 14.7308 11.22 14.465 11.4859L11.3942 14.5567C11.1283 14.8225 10.6883 14.8225 10.4225 14.5567C10.1567 14.2909 10.1567 13.8509 10.4225 13.585L12.32 11.6875H8.25V15.4C8.25 18.3334 10.0833 20.1667 13.0167 20.1667H15.3908C18.3242 20.1667 20.1575 18.3334 20.1575 15.4V6.60004C20.1667 3.66671 18.3333 1.83337 15.4 1.83337Z" fill="#0057E0"/>
<path d="M2.521 10.3125C2.14516 10.3125 1.8335 10.6242 1.8335 11C1.8335 11.3758 2.14516 11.6875 2.521 11.6875H8.25016V10.3125H2.521Z" fill="#0057E0"/>
</svg>
