<svg width="20" height="20" viewBox="0 0 20 20" fill="none" xmlns="http://www.w3.org/2000/svg">
<path d="M17.1409 2.86834C14.4276 0.164168 10.0276 0.164168 7.33259 2.86834C5.43509 4.7475 4.86676 7.45167 5.60009 9.835L1.29176 14.1433C0.98926 14.455 0.778427 15.0692 0.842593 15.5092L1.11759 17.5075C1.21843 18.1675 1.83259 18.7908 2.49259 18.8825L4.49093 19.1575C4.93093 19.2217 5.54509 19.02 5.85676 18.6992L6.60843 17.9475C6.79176 17.7733 6.79176 17.48 6.60843 17.2967L4.83009 15.5183C4.56426 15.2525 4.56426 14.8125 4.83009 14.5467C5.09593 14.2808 5.53593 14.2808 5.80176 14.5467L7.58926 16.3342C7.76343 16.5083 8.05676 16.5083 8.23093 16.3342L10.1743 14.4C12.5484 15.1425 15.2526 14.565 17.1409 12.6858C19.8451 9.98167 19.8451 5.5725 17.1409 2.86834ZM12.2918 10C11.0268 10 10.0001 8.97334 10.0001 7.70833C10.0001 6.44334 11.0268 5.41667 12.2918 5.41667C13.5568 5.41667 14.5834 6.44334 14.5834 7.70833C14.5834 8.97334 13.5568 10 12.2918 10Z" fill="#0057E0"/>
</svg>
