<svg width="25" height="24" viewBox="0 0 25 24" fill="none" xmlns="http://www.w3.org/2000/svg">
<g id="Filled Special/icon-png-file">
<g id="Group">
<path id="Path" fill-rule="evenodd" clip-rule="evenodd" d="M4.52789 22H19.5279C21.062 22 22.3057 20.7563 22.3057 19.2222V7.96852C22.3057 7.08447 21.9545 6.23662 21.3294 5.6115L18.6942 2.97631C18.069 2.35119 17.2212 2 16.3371 2H5.08344C3.54932 2 2.30566 3.24365 2.30566 4.77778V19.7778C2.30566 21.0051 3.30059 22 4.52789 22Z" fill="#A47CFC"/>
<g id="PNG">
<path d="M4.53838 17.9999C4.47971 17.9999 4.43171 17.9813 4.39438 17.9439C4.35705 17.9066 4.33838 17.8586 4.33838 17.7999V12.5999C4.33838 12.5413 4.35705 12.4933 4.39438 12.4559C4.43171 12.4186 4.47971 12.3999 4.53838 12.3999H6.72238C7.15438 12.3999 7.52771 12.4666 7.84238 12.5999C8.16238 12.7333 8.41038 12.9359 8.58638 13.2079C8.76771 13.4746 8.85838 13.8079 8.85838 14.2079C8.85838 14.6133 8.76771 14.9493 8.58638 15.2159C8.41038 15.4773 8.16238 15.6719 7.84238 15.7999C7.52771 15.9279 7.15438 15.9919 6.72238 15.9919H5.65038V17.7999C5.65038 17.8586 5.63171 17.9066 5.59438 17.9439C5.55705 17.9813 5.50905 17.9999 5.45038 17.9999H4.53838ZM5.62638 14.9999H6.68238C6.95438 14.9999 7.16505 14.9333 7.31438 14.7999C7.46905 14.6666 7.54638 14.4666 7.54638 14.1999C7.54638 13.9653 7.47705 13.7733 7.33838 13.6239C7.20505 13.4746 6.98638 13.3999 6.68238 13.3999H5.62638V14.9999Z" fill="white"/>
<path d="M10.0743 17.9999C10.0156 17.9999 9.96765 17.9813 9.93032 17.9439C9.89298 17.9066 9.87432 17.8586 9.87432 17.7999V12.5999C9.87432 12.5413 9.89298 12.4933 9.93032 12.4559C9.96765 12.4186 10.0156 12.3999 10.0743 12.3999H10.8023C10.8823 12.3999 10.941 12.4186 10.9783 12.4559C11.0156 12.4933 11.0396 12.5226 11.0503 12.5439L13.1863 15.8799V12.5999C13.1863 12.5413 13.205 12.4933 13.2423 12.4559C13.2796 12.4186 13.325 12.3999 13.3783 12.3999H14.1943C14.253 12.3999 14.301 12.4186 14.3383 12.4559C14.3756 12.4933 14.3943 12.5413 14.3943 12.5999V17.7999C14.3943 17.8533 14.3756 17.9013 14.3383 17.9439C14.301 17.9813 14.253 17.9999 14.1943 17.9999H13.4583C13.3783 17.9999 13.3196 17.9813 13.2823 17.9439C13.2503 17.9013 13.2263 17.8719 13.2103 17.8559L11.0823 14.6239V17.7999C11.0823 17.8586 11.0636 17.9066 11.0263 17.9439C10.989 17.9813 10.941 17.9999 10.8823 17.9999H10.0743Z" fill="white"/>
<path d="M18.0254 18.0799C17.5241 18.0799 17.0948 17.9973 16.7374 17.8319C16.3854 17.6613 16.1108 17.4159 15.9134 17.0959C15.7214 16.7706 15.6174 16.3786 15.6014 15.9199C15.5961 15.6906 15.5934 15.4453 15.5934 15.1839C15.5934 14.9226 15.5961 14.6746 15.6014 14.4399C15.6174 13.9919 15.7214 13.6106 15.9134 13.2959C16.1108 12.9813 16.3881 12.7413 16.7454 12.5759C17.1081 12.4053 17.5348 12.3199 18.0254 12.3199C18.4201 12.3199 18.7668 12.3706 19.0654 12.4719C19.3641 12.5733 19.6148 12.7066 19.8174 12.8719C20.0201 13.0319 20.1748 13.2079 20.2814 13.3999C20.3881 13.5919 20.4441 13.7759 20.4494 13.9519C20.4494 13.9999 20.4334 14.0426 20.4014 14.0799C20.3694 14.1119 20.3268 14.1279 20.2734 14.1279H19.2814C19.2281 14.1279 19.1854 14.1173 19.1534 14.0959C19.1268 14.0746 19.1028 14.0426 19.0814 13.9999C19.0441 13.9039 18.9828 13.8079 18.8974 13.7119C18.8174 13.6106 18.7081 13.5253 18.5694 13.4559C18.4308 13.3866 18.2494 13.3519 18.0254 13.3519C17.6894 13.3519 17.4228 13.4399 17.2254 13.6159C17.0334 13.7919 16.9294 14.0799 16.9134 14.4799C16.8974 14.9386 16.8974 15.4053 16.9134 15.8799C16.9294 16.2959 17.0361 16.5946 17.2334 16.7759C17.4361 16.9573 17.7054 17.0479 18.0414 17.0479C18.2601 17.0479 18.4548 17.0106 18.6254 16.9359C18.8014 16.8559 18.9401 16.7333 19.0414 16.5679C19.1428 16.4026 19.1934 16.1919 19.1934 15.9359V15.7359H18.3214C18.2681 15.7359 18.2228 15.7173 18.1854 15.6799C18.1481 15.6373 18.1294 15.5893 18.1294 15.5359V15.0239C18.1294 14.9653 18.1481 14.9173 18.1854 14.8799C18.2228 14.8426 18.2681 14.8239 18.3214 14.8239H20.2814C20.3401 14.8239 20.3881 14.8426 20.4254 14.8799C20.4628 14.9173 20.4814 14.9653 20.4814 15.0239V15.8959C20.4814 16.3546 20.3801 16.7466 20.1774 17.0719C19.9801 17.3973 19.6948 17.6479 19.3214 17.8239C18.9534 17.9946 18.5214 18.0799 18.0254 18.0799Z" fill="white"/>
</g>
<path id="Intersect" d="M22.2799 7.55546H18.4167C17.4962 7.55546 16.75 6.80926 16.75 5.88879V2.02563C17.4818 2.11699 18.1671 2.4493 18.6941 2.97628L21.3292 5.61147C21.8562 6.13843 22.1885 6.82367 22.2799 7.55546Z" fill="#BEA4F7"/>
</g>
</g>
</svg>
