<svg width="26" height="26" viewBox="0 0 26 26" fill="none" xmlns="http://www.w3.org/2000/svg">
<g id="icon-share">
<g id="Group">
<path id="Vector" d="M9.3604 11.7109L15.7737 8.5042M9.3604 14.2892L15.7737 17.4959M8.83265 10.957C9.96098 12.0853 9.96098 13.9147 8.83265 15.043C7.70433 16.1713 5.87496 16.1713 4.74663 15.043C3.61831 13.9147 3.61831 12.0853 4.74663 10.957C5.87496 9.82865 7.70433 9.82865 8.83265 10.957ZM20.3875 5.17962C21.5159 6.30794 21.5159 8.13731 20.3875 9.26564C19.2592 10.394 17.4298 10.394 16.3015 9.26564C15.1732 8.13731 15.1732 6.30794 16.3015 5.17962C17.4298 4.05129 19.2592 4.05129 20.3875 5.17962ZM20.3875 16.7344C21.5159 17.8627 21.5159 19.6921 20.3875 20.8204C19.2592 21.9487 17.4298 21.9487 16.3015 20.8204C15.1732 19.6921 15.1732 17.8627 16.3015 16.7344C17.4298 15.6061 19.2592 15.6061 20.3875 16.7344Z" stroke="#0F0F0F" stroke-width="1.35" stroke-linecap="round" stroke-linejoin="round"/>
</g>
</g>
</svg>
