<svg width="20" height="20" viewBox="0 0 20 20" fill="none" xmlns="http://www.w3.org/2000/svg">
<g id="icon-share">
<g id="Group">
<path id="Vector" d="M7.20001 9.00837L12.1333 6.5417M7.20001 10.9917L12.1333 13.4584M6.79405 8.42845C7.66199 9.2964 7.66199 10.7036 6.79405 11.5715C5.92611 12.4395 4.5189 12.4395 3.65096 11.5715C2.78301 10.7036 2.78301 9.2964 3.65096 8.42845C4.5189 7.56051 5.92611 7.56051 6.79405 8.42845ZM15.6824 3.98433C16.5504 4.85227 16.5504 6.25948 15.6824 7.12742C14.8145 7.99536 13.4073 7.99536 12.5393 7.12742C11.6714 6.25948 11.6714 4.85227 12.5393 3.98433C13.4073 3.11639 14.8145 3.11639 15.6824 3.98433ZM15.6824 12.8726C16.5504 13.7406 16.5504 15.1478 15.6824 16.0157C14.8145 16.8837 13.4073 16.8837 12.5393 16.0157C11.6714 15.1478 11.6714 13.7406 12.5393 12.8726C13.4073 12.0047 14.8145 12.0047 15.6824 12.8726Z" stroke="white" stroke-width="1.35" stroke-linecap="round" stroke-linejoin="round"/>
</g>
</g>
</svg>
