<svg width="24" height="24" viewBox="0 0 24 24" fill="none" xmlns="http://www.w3.org/2000/svg">
<g id="Filled Special/icon-jpg-file">
<g id="Group 9">
<g id="Group">
<path id="Path" fill-rule="evenodd" clip-rule="evenodd" d="M4.17632 22H19.1763C20.7104 22 21.9541 20.7563 21.9541 19.2222V7.96852C21.9541 7.08447 21.6029 6.23662 20.9778 5.6115L18.3426 2.97631C17.7175 2.35119 16.8696 2 15.9856 2H4.73188C3.19776 2 1.9541 3.24365 1.9541 4.77778V19.7778C1.9541 21.0051 2.94902 22 4.17632 22Z" fill="#FF7878"/>
<path id="Intersect" d="M21.9283 7.55546H18.0651C17.1446 7.55546 16.3984 6.80926 16.3984 5.88879V2.02563C17.1302 2.11699 17.8155 2.4493 18.3425 2.97628L20.9777 5.61147C21.5046 6.13843 21.837 6.82367 21.9283 7.55546Z" fill="#FFB6B6"/>
</g>
<g id="MP4">
<path d="M4.43408 19L5.52208 13.4H6.33008L7.69408 16.988L9.05808 13.4H9.86608L10.9541 19H9.95808L9.28608 15.536L8.02608 18.872H7.35808L6.09808 15.536L5.43008 19H4.43408Z" fill="white"/>
<path d="M11.9622 19V13.4H13.9622C14.2662 13.4 14.5409 13.476 14.7862 13.628C15.0342 13.78 15.2302 13.984 15.3742 14.24C15.5182 14.496 15.5902 14.7774 15.5902 15.084C15.5902 15.3987 15.5155 15.684 15.3662 15.94C15.2195 16.1934 15.0222 16.396 14.7742 16.548C14.5262 16.6974 14.2555 16.772 13.9622 16.772H12.9382V19H11.9622ZM12.9382 15.796H13.8582C13.9969 15.796 14.1235 15.7614 14.2382 15.692C14.3529 15.6227 14.4435 15.5294 14.5102 15.412C14.5795 15.2947 14.6142 15.164 14.6142 15.02C14.6142 14.8734 14.5795 14.7414 14.5102 14.624C14.4435 14.5067 14.3529 14.4134 14.2382 14.344C14.1235 14.2747 13.9969 14.24 13.8582 14.24H12.9382V15.796Z" fill="white"/>
<path d="M18.8159 19V17.644H16.4319V16.664L18.5879 13.4H19.7919V16.668H20.2639V17.644H19.7919V19H18.8159ZM17.5639 16.664L18.8159 16.668L18.8119 14.732L17.5639 16.664Z" fill="white"/>
</g>
</g>
</g>
</svg>
